<svg width="580" height="400" xmlns="http://www.w3.org/2000/svg">
 <!-- Created with Method Draw - http://github.com/duopixel/Method-Draw/ -->

 <g>
  <title>background</title>
  <g display="none" overflow="visible" y="0" x="0" height="100%" width="100%" id="canvasGrid">
   <rect fill="url(#gridpattern)" stroke-width="0" y="0" x="0" height="100%" width="100%"/>
  </g>
 </g>
 <g>
  <title>Layer 1</title>
  <path id="svg_35" d="m304.990906,343.30014c-5.926849,-8.110748 -15.14801,-9.035797 -17.36319,-20.580383c-1.738983,-6.278412 -18.124237,-14.700562 -8.426422,-3.430267c7.485626,6.791626 16.384277,31.84256 -2.038483,23.926483c-14.010071,-5.141968 -14.610382,-21.019379 -18.365967,-32.905731c-12.213715,-8.47467 3.159363,-26.388824 -9.992828,-37.247345c-11.159332,-11.332336 -3.387115,-32.555664 -19.338699,-40.592178c-7.998627,-3.249512 -11.468857,19.182419 -12.813171,2.772629c-4.384216,-16.596237 -19.869751,8.067047 -30.199524,5.453003c-8.335754,-0.725555 13.93721,-6.518433 3.309998,-8.077423c-6.249069,3.420959 -12.029327,9.335968 -13.022903,-0.455612c-7.513855,-4.464081 -23.281403,-11.594635 -22.868118,-18.686432c6.527206,-2.051697 28.561951,3.883377 24.743851,-4.362503c-6.552628,-2.485931 -7.741898,-9.284912 0.285721,-4.722824c15.81691,0.496597 34.364441,-5.818146 47.524948,6.259064c6.863052,4.223434 13.61174,19.37294 17.288513,4.651154c11.847626,-14.290787 35.750549,-15.50032 43.055969,-34.002167c1.767853,-8.95076 -5.426208,-14.057053 -11.537354,-15.870575c-1.192749,-2.940628 -3.21756,-15.430939 -8.27359,-9.128693c0.233521,-5.515961 4.97348,-18.706085 -5.526917,-12.866974c-1.066315,-11.749985 8.978882,-23.470413 -4.308563,-32.025772c12.44812,2.307587 9.993347,-11.883698 7.278931,-14.133736c7.380951,-1.049469 16.042389,-7.689117 11.974976,-15.916527c8.013672,14.549339 8.289124,-17.65007 14.888885,-3.771408c12.144714,1.990807 -3.770538,-10.848885 7.399567,-7.983536c6.371948,0.21862 4.95874,-6.987503 10.688232,-1.548912c7.579254,-4.136627 -5.816071,-16.640297 6.430481,-7.953468c4.115173,3.575401 17.21637,12.939873 14.869049,0.583458c11.632111,12.408836 20.781128,-11.526833 30.452393,-16.48407c3.833252,-4.587734 12.174438,-9.442154 4.479279,-0.685783c-5.10083,11.162674 -22.42041,23.236916 -17.762573,34.329338c-4.21759,3.839386 8.509888,8.665672 -1.62146,7.211868c-6.004913,6.479012 8.049774,18.601433 9.165253,28.798775c-3.217194,6.987213 -15.470825,14.919952 -20.429382,14.668991c1.814453,-8.995819 -2.111298,-20.720642 -13.583252,-15.636902c6.426758,11.760162 15.113007,22.992401 20.556519,35.779709c5.320007,12.571487 13.947754,27.086899 25.297821,10.908844c7.235687,-10.310577 27.897766,-10.161407 22.221649,6.584091c-2.901031,16.44426 4.868652,38.145721 -10.063629,49.472885c-9.002899,17.354874 -18.985565,-6.451492 -11.908264,-15.457565c-1.804108,-2.573517 -3.202972,-4.391708 2.07724,-7.909348c-1.094421,-2.637726 15.178467,-12.56601 6.97522,-18.658371c-9.320251,10.575989 -22.972229,22.818634 -19.176849,38.541031c3.075836,10.535706 -22.317139,28.596542 -20.280975,11.111771c0.458313,-6.794083 10.15271,-19.963943 7.918945,-21.660995c-7.077209,13.290878 -17.155243,26.058197 -32.379395,30.004715c-12.66626,0.750046 -19.302429,10.947205 -13.286835,22.26239c1.149963,16.030853 -7.315979,30.541656 -9.264801,46.151703c3.622559,16.55661 25.677948,19.9021 28.667542,36.791565c5.146667,11.342346 -7.720337,9.665619 -13.717834,6.492035l0,0zm-31.355988,-49.393555c-1.85791,-7.48407 -5.677826,19.455017 -0.968964,5.157013l0.704559,-2.526001l0.264404,-2.631012l0,0z" stroke-opacity="null" stroke-width="1.5" stroke="null" fill="#993a48"/>
 </g>
</svg>