<svg width="580" height="400" xmlns="http://www.w3.org/2000/svg">
 <!-- Created with Method Draw - http://github.com/duopixel/Method-Draw/ -->

 <g>
  <title>background</title>
  <g display="none" overflow="visible" y="0" x="0" height="100%" width="100%" id="canvasGrid">
   <rect fill="url(#gridpattern)" stroke-width="0" y="0" x="0" height="100%" width="100%"/>
  </g>
 </g>
 <g>
  <title>Layer 1</title>
  <path transform="rotate(-36.7663, 452.426, 256.072)" id="svg_36" d="m447.864777,253.993118c0.276703,0.182953 0.862396,-0.163879 1.146606,-0.206741c-0.320038,-0.416016 0.885803,-2.443787 0.469543,-3.179901c-0.127747,-1.664948 -3.369446,-5.422562 -3.777405,-5.858521c0.155304,-0.292755 1.901001,-0.020248 1.848236,0.021729c-0.728058,0.586258 2.457947,3.953094 2.82547,5.900955c0.678253,-0.037735 1.568665,-0.291504 1.963776,0.127686c0.369324,-0.402908 3.216522,-3.48436 3.371826,-6.146561c0.022888,-0.38118 1.568085,-0.140137 1.277344,0.092285c-0.466064,1.657852 -3.752289,6.311981 -4.009003,6.4814c0.29895,1.451157 0.178162,1.550827 2.086273,2.679337c0.858734,-2.016815 2.688812,-3.728821 4.365356,-5.432709c1.892273,-1.9133 3.162628,-3.745987 5.24765,-5.737457c2.744141,-2.529892 6.248932,-4.837967 9.459473,-6.21637c2.23288,-0.958359 5.97522,-1.780075 6.548523,-1.834229c1.062195,-0.103073 2.02356,-0.084869 3.282715,0.102386c1.858856,0.276031 3.673096,0.430511 5.624573,1.346542c1.834839,1.175629 1.200531,2.648178 0.858795,4.028534c-2.826111,3.116501 -5.720184,6.848419 -6.631714,10.666428c-0.306519,1.413422 -0.857574,3.849915 -2.157745,5.380127c-2.091034,2.353973 -4.649811,2.267151 -7.054382,2.585999c1.465546,0.419312 3.054077,1.789093 4.479767,3.165131c2.223419,2.164856 3.306793,4.384796 2.732849,6.801392c-0.122528,0.506805 -2.242828,4.351624 -3.279785,5.558044c-3.93573,4.593811 -9.29425,7.709137 -13.613281,7.203613c-1.554688,-0.182251 -5.845001,-3.447449 -6.615845,-4.41095c-1.9151,-2.392029 -3.487885,-5.277374 -3.552338,-7.79599c-0.238037,-0.23822 -0.528809,-0.255737 -0.401031,-0.573669c-0.237976,0.728241 -0.995361,3.100861 -2.11673,4.600677c-1.62085,2.16861 -3.104492,-1.073181 -3.705322,-3.701508c-0.205811,-0.901306 -0.054535,-1.057312 -0.294952,-1.596069c-1.135468,0.430908 -0.537506,1.680084 -0.983063,2.689484c-0.378021,0.878571 -2.069794,3.562958 -2.537048,4.174957c-1.493622,1.956116 -4.84726,4.915741 -7.279449,5.625702c-2.256866,0.659363 -4.170166,0.566803 -5.984467,-0.363525c-2.340088,-1.200134 -5.637421,-3.987305 -7.666901,-6.254059c-2.567566,-2.803925 -4.812653,-7.017365 -2.676575,-9.985199c1.364075,-1.851898 3.931061,-4.611359 6.438782,-5.28949c-1.770264,-0.216858 -5.687866,-1.38385 -7.144562,-4.62529c-0.467773,-1.027771 -0.641296,-2.625275 -0.759705,-3.768982c-0.194031,-1.88678 -1.055145,-4.055405 -1.769714,-5.914139c-0.575104,-1.698898 -1.590393,-3.87413 -2.653778,-5.73288c-1.11377,-1.950668 -2.027069,-5.176178 -0.088501,-6.76442c0.677063,-0.555099 2.774475,-1.202438 3.212372,-1.248779c1.531769,-0.163071 3.619171,0.588989 5.168518,1.040543c1.015289,0.298203 5.468719,1.889175 6.700287,2.765015c8.120026,5.776047 13.894104,12.971039 17.644562,19.599472z" stroke-opacity="null" stroke-width="1.5" stroke="null" fill="#98c960"/>
  <path transform="rotate(30.5543, 152.961, 156.773)" id="svg_37" d="m147.381317,154.230728c0.338501,0.223846 1.055023,-0.20047 1.402756,-0.252869c-0.391556,-0.508972 1.083664,-2.989746 0.574463,-3.890305c-0.156311,-2.03688 -4.122208,-6.633926 -4.621292,-7.167267c0.190033,-0.35817 2.325668,-0.02478 2.261124,0.026566c-0.890701,0.717239 3.007034,4.836197 3.45668,7.219208c0.829742,-0.046173 1.919098,-0.356628 2.402435,0.156204c0.451843,-0.492905 3.935089,-4.262741 4.125092,-7.519669c0.028015,-0.466339 1.918365,-0.171432 1.562683,0.112915c-0.57019,2.028214 -4.590515,7.722031 -4.904602,7.929291c0.365738,1.775345 0.217987,1.897278 2.552338,3.277893c1.050583,-2.467361 3.289505,-4.561829 5.340546,-6.646347c2.315033,-2.340729 3.869141,-4.582809 6.419983,-7.019165c3.357132,-3.095062 7.644882,-5.918747 11.572678,-7.605072c2.731689,-1.172455 7.310043,-2.17775 8.011383,-2.243988c1.299484,-0.126099 2.475586,-0.103821 4.016083,0.125259c2.274094,0.337708 4.493652,0.526703 6.881027,1.647354c2.244736,1.438248 1.468735,3.239761 1.050644,4.928482c-3.457458,3.812714 -6.998001,8.378326 -8.113174,13.049255c-0.375015,1.729172 -1.049149,4.709961 -2.639771,6.582016c-2.558167,2.879791 -5.688538,2.773636 -8.630264,3.163681c1.792877,0.51297 3.736328,2.188766 5.480484,3.872192c2.720139,2.648453 4.045486,5.364349 3.343369,8.320816c-0.149918,0.62001 -2.743835,5.32373 -4.012482,6.799637c-4.814957,5.620041 -11.370499,9.431366 -16.654434,8.812851c-1.901932,-0.222946 -7.150726,-4.21759 -8.093796,-5.396301c-2.342896,-2.926437 -4.267014,-6.456329 -4.345886,-9.537567c-0.291183,-0.291443 -0.646881,-0.312897 -0.490601,-0.701813c-0.291153,0.890884 -1.217728,3.793549 -2.5896,5.628448c-1.982925,2.653046 -3.798035,-1.312927 -4.533081,-4.528442c-0.25177,-1.102646 -0.066696,-1.293488 -0.360809,-1.952606c-1.389114,0.527191 -0.657608,2.055389 -1.202682,3.290314c-0.462463,1.074844 -2.532196,4.358902 -3.103821,5.107605c-1.827271,2.393127 -5.930115,6.013885 -8.905594,6.882477c-2.761078,0.806641 -5.101791,0.693405 -7.321396,-0.444763c-2.862823,-1.468262 -6.89679,-4.878052 -9.379646,-7.651199c-3.141121,-3.430298 -5.887779,-8.585007 -3.274498,-12.215851c1.668823,-2.265549 4.809242,-5.641479 7.877174,-6.471115c-2.165749,-0.265259 -6.958511,-1.692932 -8.740631,-5.658539c-0.572273,-1.257339 -0.784546,-3.211731 -0.929398,-4.610931c-0.237396,-2.308289 -1.290878,-4.961349 -2.165108,-7.235321c-0.703529,-2.078415 -1.945641,-4.739594 -3.246559,-7.01358c-1.362595,-2.386429 -2.479912,-6.332489 -0.108276,-8.275543c0.828323,-0.6791 3.394295,-1.471077 3.929985,-1.527748c1.87394,-0.199524 4.427681,0.720558 6.323143,1.272995c1.242104,0.364792 6.690392,2.311195 8.197052,3.382683c9.933998,7.066391 16.997963,15.868713 21.586281,23.977859z" stroke-opacity="null" stroke-width="1.5" stroke="null" fill="#e8b51e"/>
 </g>
</svg>