<svg width="580" height="400" xmlns="http://www.w3.org/2000/svg">
 <!-- Created with Method Draw - http://github.com/duopixel/Method-Draw/ -->

 <g>
  <title>background</title>
  <g id="canvasGrid" display="none">
   <rect id="svg_23" width="100%" height="100%" x="0" y="0" stroke-width="0" fill="url(#gridpattern)"/>
  </g>
 </g>
 <g>
  <title>Layer 1</title>
  <path id="svg_26" d="m249.432831,175.950867c1.299652,0.859238 4.042984,-0.771439 5.386963,-0.969864c-1.508896,-1.955399 4.153748,-11.484985 2.203888,-14.944244c-0.605927,-7.822006 -15.831619,-25.476807 -17.748764,-27.525787c0.727875,-1.371567 8.924057,-0.093643 8.681778,0.104645c-3.41571,2.754227 11.545624,18.574661 13.275421,27.724426c3.184326,-0.176575 7.370789,-1.372299 9.231995,0.600113c1.730164,-1.895203 15.104858,-16.371063 15.842896,-28.881241c0.09903,-1.789948 7.359253,-0.655487 5.993042,0.435532c-2.181885,7.78891 -17.627808,29.657471 -18.828003,30.450989c1.399261,6.819427 0.826569,7.28746 9.794312,12.591995c4.043152,-9.479904 12.636627,-17.522385 20.513489,-25.526093c8.890381,-8.989853 14.862183,-17.599533 24.655548,-26.958519c12.890411,-11.887383 29.359863,-22.73362 44.442535,-29.205902c10.499268,-4.505951 28.071594,-8.367622 30.770569,-8.620949c4.989746,-0.484848 9.507813,-0.396721 15.423431,0.484703c8.736328,1.294571 17.263062,2.021683 26.429382,6.323944c8.615631,5.525154 5.640778,12.443283 4.032379,18.927094c-13.274933,14.64138 -26.86972,32.180382 -31.155457,50.115868c-1.443512,6.643509 -4.032501,18.090042 -10.146759,25.278488c-9.81601,11.060837 -21.835327,10.653488 -33.139832,12.151505c6.886902,1.972046 14.355957,8.406326 21.042603,14.873322c10.455566,10.168808 15.545319,20.601593 12.846863,31.954605c-0.57428,2.379715 -10.532654,20.447556 -15.413483,26.115707c-18.486816,21.582092 -43.659668,36.218384 -63.953796,33.843903c-7.314667,-0.853607 -27.464233,-16.200104 -31.089386,-20.722687c-9.000977,-11.242859 -16.381653,-24.799469 -16.69046,-36.631439c-1.112793,-1.1185 -2.489563,-1.201019 -1.884369,-2.693726c-1.123718,3.421005 -4.670471,14.569763 -9.947968,21.615509c-7.612183,10.190735 -14.586426,-5.040649 -17.406921,-17.39035c-0.969284,-4.236069 -0.253265,-4.968903 -1.387924,-7.502594c-5.33252,2.027069 -2.523209,7.893585 -4.616638,12.636017c-1.77269,4.131561 -9.727905,16.740906 -11.919922,19.615906c-7.017853,9.193787 -22.772018,23.097321 -34.196899,26.435059c-10.608521,3.096039 -19.59877,2.660797 -28.125977,-1.707336c-10.995316,-5.640778 -26.48494,-18.734009 -36.015274,-29.387665c-12.07325,-13.170959 -22.616821,-32.96843 -12.581375,-46.916077c6.412491,-8.697388 18.475937,-21.664612 30.253525,-24.84848c-8.318207,-1.019058 -26.72776,-6.505737 -33.56897,-21.730927c-2.191696,-4.831146 -3.006966,-12.339035 -3.570221,-17.709686c-0.913139,-8.868866 -4.956787,-19.053833 -8.3172,-27.790085c-2.698776,-7.98217 -7.469307,-18.200363 -12.460106,-26.936684c-5.233047,-9.160599 -9.529701,-24.319618 -0.418686,-31.778648c3.18399,-2.610832 13.033524,-5.651268 15.093636,-5.866211c7.194008,-0.771172 16.999329,2.765068 24.281174,4.886147c4.770645,1.39904 25.691925,8.874069 31.486435,12.994331c38.15152,27.13475 65.275452,60.940369 82.902527,92.085388z" fill-opacity="null" stroke-opacity="null" stroke-width="5" stroke="#ffffff" fill="none"/>
 </g>
 <g>
  <title>background</title>
  <rect fill="none" id="canvas_background" height="402" width="582" y="-1" x="-1"/>
 </g>
</svg>